<svg width="20" height="20" viewBox="0 0 20 20" fill="none" xmlns="http://www.w3.org/2000/svg">
<g clip-path="url(#clip0_3305_88265)">
<path d="M15.8333 3.66593H12.35C12 2.69927 11.0833 1.99927 10 1.99927C8.91667 1.99927 8 2.69927 7.65 3.66593H4.16667C3.25 3.66593 2.5 4.41593 2.5 5.3326V16.9993C2.5 17.9159 3.25 18.6659 4.16667 18.6659H15.8333C16.75 18.6659 17.5 17.9159 17.5 16.9993V5.3326C17.5 4.41593 16.75 3.66593 15.8333 3.66593ZM10 3.66593C10.4583 3.66593 10.8333 4.04093 10.8333 4.49927C10.8333 4.9576 10.4583 5.3326 10 5.3326C9.54167 5.3326 9.16667 4.9576 9.16667 4.49927C9.16667 4.04093 9.54167 3.66593 10 3.66593ZM10.8333 15.3326H6.66667C6.20833 15.3326 5.83333 14.9576 5.83333 14.4993C5.83333 14.0409 6.20833 13.6659 6.66667 13.6659H10.8333C11.2917 13.6659 11.6667 14.0409 11.6667 14.4993C11.6667 14.9576 11.2917 15.3326 10.8333 15.3326ZM13.3333 11.9993H6.66667C6.20833 11.9993 5.83333 11.6243 5.83333 11.1659C5.83333 10.7076 6.20833 10.3326 6.66667 10.3326H13.3333C13.7917 10.3326 14.1667 10.7076 14.1667 11.1659C14.1667 11.6243 13.7917 11.9993 13.3333 11.9993ZM13.3333 8.66593H6.66667C6.20833 8.66593 5.83333 8.29093 5.83333 7.8326C5.83333 7.37427 6.20833 6.99927 6.66667 6.99927H13.3333C13.7917 6.99927 14.1667 7.37427 14.1667 7.8326C14.1667 8.29093 13.7917 8.66593 13.3333 8.66593Z" fill="#2888F6"/>
</g>
<defs>
<clipPath id="clip0_3305_88265">
<rect width="20" height="20" fill="white"/>
</clipPath>
</defs>
</svg>
