<svg width="20" height="20" viewBox="0 0 20 20" fill="none" xmlns="http://www.w3.org/2000/svg">
<g clip-path="url(#clip0_3513_130814)">
<path d="M10.8335 6.66659C10.8335 4.82492 9.34183 3.33325 7.50016 3.33325C5.6585 3.33325 4.16683 4.82492 4.16683 6.66659C4.16683 8.50825 5.6585 9.99992 7.50016 9.99992C9.34183 9.99992 10.8335 8.50825 10.8335 6.66659ZM12.5002 8.33325V9.99992H15.0002V12.4999H16.6668V9.99992H19.1668V8.33325H16.6668V5.83325H15.0002V8.33325H12.5002ZM0.833496 14.9999V16.6666H14.1668V14.9999C14.1668 12.7833 9.72516 11.6666 7.50016 11.6666C5.27516 11.6666 0.833496 12.7833 0.833496 14.9999Z" fill="#2888F6"/>
</g>
<defs>
<clipPath id="clip0_3513_130814">
<rect width="20" height="20" fill="white"/>
</clipPath>
</defs>
</svg>
