<svg width="16" height="16" viewBox="0 0 16 16" fill="none" xmlns="http://www.w3.org/2000/svg">
<path d="M8.00006 3.33327V1.47327C8.00006 1.17327 7.64006 1.02661 7.43339 1.23994L4.90006 3.76661C4.76673 3.89994 4.76673 4.10661 4.90006 4.23994L7.42673 6.76661C7.64006 6.97327 8.00006 6.82661 8.00006 6.52661V4.66661C10.4867 4.66661 12.4534 6.94661 11.9067 9.52661C11.5934 11.0399 10.3667 12.2599 8.86006 12.5733C6.48006 13.0733 4.36006 11.4399 4.04006 9.23327C3.99339 8.91327 3.71339 8.66661 3.38673 8.66661C2.98673 8.66661 2.66673 9.01994 2.72006 9.41994C3.13339 12.3466 5.92006 14.5133 9.07339 13.8999C11.1534 13.4933 12.8267 11.8199 13.2334 9.73994C13.8934 6.31994 11.2934 3.33327 8.00006 3.33327Z" fill="#A8AAAF"/>
</svg>
