<svg width="24" height="24" viewBox="0 0 24 24" fill="none" xmlns="http://www.w3.org/2000/svg">
<path d="M6.81055 18.7549H17.1842C18.8189 18.7549 19.6702 17.9111 19.6702 16.299V7.13072C19.6702 5.51855 18.8189 4.6748 17.1842 4.6748H6.81055C5.18331 4.6748 4.33203 5.51102 4.33203 7.13072V16.299C4.33203 17.9111 5.18331 18.7549 6.81055 18.7549ZM6.80301 17.2557C6.17773 17.2557 5.83119 16.9318 5.83119 16.2688V9.33803C5.83119 8.67508 6.17773 8.35114 6.80301 8.35114H17.1917C17.817 8.35114 18.1635 8.67508 18.1635 9.33803V16.2688C18.1635 16.9318 17.817 17.2557 17.1917 17.2557H6.80301ZM10.5472 10.9502H10.9916C11.2628 10.9502 11.3532 10.8673 11.3532 10.6037V10.1592C11.3532 9.88797 11.2628 9.80511 10.9916 9.80511H10.5472C10.2759 9.80511 10.1855 9.88797 10.1855 10.1592V10.6037C10.1855 10.8673 10.2759 10.9502 10.5472 10.9502ZM13.0106 10.9502H13.4551C13.7188 10.9502 13.8092 10.8673 13.8092 10.6037V10.1592C13.8092 9.88797 13.7188 9.80511 13.4551 9.80511H13.0106C12.7394 9.80511 12.649 9.88797 12.649 10.1592V10.6037C12.649 10.8673 12.7394 10.9502 13.0106 10.9502ZM15.4665 10.9502H15.911C16.1822 10.9502 16.2726 10.8673 16.2726 10.6037V10.1592C16.2726 9.88797 16.1822 9.80511 15.911 9.80511H15.4665C15.2028 9.80511 15.1124 9.88797 15.1124 10.1592V10.6037C15.1124 10.8673 15.2028 10.9502 15.4665 10.9502ZM8.09124 13.376H8.52818C8.79939 13.376 8.88979 13.2931 8.88979 13.0219V12.5774C8.88979 12.3138 8.79939 12.2309 8.52818 12.2309H8.09124C7.82003 12.2309 7.72963 12.3138 7.72963 12.5774V13.0219C7.72963 13.2931 7.82003 13.376 8.09124 13.376ZM10.5472 13.376H10.9916C11.2628 13.376 11.3532 13.2931 11.3532 13.0219V12.5774C11.3532 12.3138 11.2628 12.2309 10.9916 12.2309H10.5472C10.2759 12.2309 10.1855 12.3138 10.1855 12.5774V13.0219C10.1855 13.2931 10.2759 13.376 10.5472 13.376ZM13.0106 13.376H13.4551C13.7188 13.376 13.8092 13.2931 13.8092 13.0219V12.5774C13.8092 12.3138 13.7188 12.2309 13.4551 12.2309H13.0106C12.7394 12.2309 12.649 12.3138 12.649 12.5774V13.0219C12.649 13.2931 12.7394 13.376 13.0106 13.376ZM15.4665 13.376H15.911C16.1822 13.376 16.2726 13.2931 16.2726 13.0219V12.5774C16.2726 12.3138 16.1822 12.2309 15.911 12.2309H15.4665C15.2028 12.2309 15.1124 12.3138 15.1124 12.5774V13.0219C15.1124 13.2931 15.2028 13.376 15.4665 13.376ZM8.09124 15.7942H8.52818C8.79939 15.7942 8.88979 15.7114 8.88979 15.4477V15.0032C8.88979 14.732 8.79939 14.6491 8.52818 14.6491H8.09124C7.82003 14.6491 7.72963 14.732 7.72963 15.0032V15.4477C7.72963 15.7114 7.82003 15.7942 8.09124 15.7942ZM10.5472 15.7942H10.9916C11.2628 15.7942 11.3532 15.7114 11.3532 15.4477V15.0032C11.3532 14.732 11.2628 14.6491 10.9916 14.6491H10.5472C10.2759 14.6491 10.1855 14.732 10.1855 15.0032V15.4477C10.1855 15.7114 10.2759 15.7942 10.5472 15.7942ZM13.0106 15.7942H13.4551C13.7188 15.7942 13.8092 15.7114 13.8092 15.4477V15.0032C13.8092 14.732 13.7188 14.6491 13.4551 14.6491H13.0106C12.7394 14.6491 12.649 14.732 12.649 15.0032V15.4477C12.649 15.7114 12.7394 15.7942 13.0106 15.7942Z" fill="currentColor"/>
</svg>
