<svg width="24" height="24" viewBox="0 0 24 24" fill="none" xmlns="http://www.w3.org/2000/svg">
<g clip-path="url(#clip0_5498_102418)">
<rect width="24" height="24" rx="2"/>
<path d="M3.92272 18.4286C3.55844 18.4286 3.25287 18.3051 3.00601 18.0583C2.76001 17.8123 2.63701 17.5071 2.63701 17.1428V6.85713C2.63701 6.49284 2.76001 6.18727 3.00601 5.94041C3.25287 5.69441 3.55844 5.57141 3.92272 5.57141C4.28701 5.57141 4.59258 5.69441 4.83944 5.94041C5.08544 6.18727 5.20844 6.49284 5.20844 6.85713V10.7143H10.3513V6.85713C10.3513 6.49284 10.4747 6.18727 10.7216 5.94041C10.9676 5.69441 11.2727 5.57141 11.637 5.57141C12.0013 5.57141 12.3069 5.69441 12.5537 5.94041C12.7997 6.18727 12.9227 6.49284 12.9227 6.85713V17.1428C12.9227 17.5071 12.7997 17.8123 12.5537 18.0583C12.3069 18.3051 12.0013 18.4286 11.637 18.4286C11.2727 18.4286 10.9676 18.3051 10.7216 18.0583C10.4747 17.8123 10.3513 17.5071 10.3513 17.1428V13.2857H5.20844V17.1428C5.20844 17.5071 5.08544 17.8123 4.83944 18.0583C4.59258 18.3051 4.28701 18.4286 3.92272 18.4286ZM19.3513 18.4286C18.987 18.4286 18.6819 18.3051 18.4359 18.0583C18.189 17.8123 18.0656 17.5071 18.0656 17.1428V8.14284H16.7799C16.4156 8.14284 16.1104 8.01941 15.8644 7.77255C15.6176 7.52655 15.4942 7.22141 15.4942 6.85713C15.4942 6.49284 15.6176 6.18727 15.8644 5.94041C16.1104 5.69441 16.4156 5.57141 16.7799 5.57141H19.3513C19.7156 5.57141 20.0207 5.69441 20.2667 5.94041C20.5136 6.18727 20.637 6.49284 20.637 6.85713V17.1428C20.637 17.5071 20.5136 17.8123 20.2667 18.0583C20.0207 18.3051 19.7156 18.4286 19.3513 18.4286Z" fill="currentColor"/>
</g>
<defs>
<clipPath id="clip0_5498_102418">
<rect width="24" height="24" rx="2"/>
</clipPath>
</defs>
</svg>
