<svg width="24" height="24" viewBox="0 0 24 24" fill="none" xmlns="http://www.w3.org/2000/svg">
<rect width="24" height="24" rx="2"/>
<path d="M3 20L6.15 16.85L6.1 16.8C5.7 16.4 5.5 15.9333 5.5 15.4C5.5 14.8667 5.7 14.4 6.1 14L15.5 4.6C15.9 4.2 16.3667 4 16.9 4C17.4333 4 17.9 4.2 18.3 4.6L20.9 7.2C21.3 7.6 21.5 8.06667 21.5 8.6C21.5 9.13333 21.3 9.6 20.9 10L11.5 19.4C11.1 19.8 10.6333 20 10.1 20C9.56667 20 9.1 19.8 8.7 19.4L8.65 19.35L8 20H3ZM15.075 13.025L12.475 10.425L7.525 15.375L10.125 17.975L15.075 13.025Z" fill="currentColor"/>
</svg>
