<svg width="25" height="24" viewBox="0 0 25 24" fill="none" xmlns="http://www.w3.org/2000/svg">
<g clip-path="url(#clip0_3575_8320)">
<path d="M4.10938 18H20.1094C20.6594 18 21.1094 17.55 21.1094 17C21.1094 16.45 20.6594 16 20.1094 16H4.10938C3.55937 16 3.10938 16.45 3.10938 17C3.10938 17.55 3.55937 18 4.10938 18ZM4.10938 13H20.1094C20.6594 13 21.1094 12.55 21.1094 12C21.1094 11.45 20.6594 11 20.1094 11H4.10938C3.55937 11 3.10938 11.45 3.10938 12C3.10938 12.55 3.55937 13 4.10938 13ZM3.10938 7C3.10938 7.55 3.55937 8 4.10938 8H20.1094C20.6594 8 21.1094 7.55 21.1094 7C21.1094 6.45 20.6594 6 20.1094 6H4.10938C3.55937 6 3.10938 6.45 3.10938 7Z" fill="#1B1B1C"/>
</g>
<defs>
<clipPath id="clip0_3575_8320">
<rect width="24" height="24" fill="white" transform="translate(0.109375)"/>
</clipPath>
</defs>
</svg>
