<svg width="41" height="13" viewBox="0 0 41 13" fill="none" xmlns="http://www.w3.org/2000/svg">
<path d="M0 0.31V12.36H1.42V0L0 0.31ZM1.93 7.96L5.67 12.57L6.77 11.71L3.6 7.88L6.34 4.42L5.23 3.61L1.93 7.96Z" fill="#1E1E1E"/>
<path d="M10.7 11.34C10.9 11.34 11.1 11.31 11.31 11.26C11.52 11.21 11.73 11.14 11.94 11.06C12.15 10.98 12.35 10.87 12.53 10.76C12.72 10.64 12.88 10.51 13.02 10.38V8.39H11.54C10.79 8.39 10.24 8.52 9.9 8.78C9.56 9.04 9.38 9.45 9.38 10.01C9.38 10.9 9.82 11.35 10.69 11.35M8.03 10.07C8.03 9.21 8.32 8.55 8.89 8.1C9.46 7.65 10.29 7.42 11.39 7.42H13.03V6.87C13.03 5.55 12.45 4.89 11.3 4.89C10.93 4.89 10.54 4.94 10.13 5.05C9.72 5.15 9.35 5.28 9.01 5.44L8.59 4.43C9.01 4.19 9.47 4.01 9.96 3.88C10.45 3.75 10.93 3.68 11.39 3.68C13.39 3.68 14.39 4.76 14.39 6.91V12.36H13.34L13.17 11.42C12.75 11.76 12.3 12.03 11.82 12.22C11.34 12.41 10.89 12.5 10.45 12.5C9.7 12.5 9.11 12.28 8.68 11.85C8.25 11.42 8.04 10.82 8.04 10.07" fill="#1E1E1E"/>
<path d="M22.14 3.62L23.25 4.43L20.51 7.89L23.68 11.72L22.58 12.58L18.84 7.97L22.13 3.62H22.14ZM18.34 12.36H16.92V0.31L18.34 0V12.36Z" fill="#1E1E1E"/>
<path d="M27.62 11.34C27.81 11.34 28.02 11.31 28.23 11.26C28.44 11.21 28.65 11.14 28.86 11.06C29.07 10.98 29.27 10.87 29.45 10.76C29.63 10.64 29.8 10.51 29.94 10.38V8.39H28.46C27.71 8.39 27.16 8.52 26.82 8.78C26.48 9.04 26.3 9.45 26.3 10.01C26.3 10.9 26.74 11.35 27.61 11.35M24.95 10.07C24.95 9.21 25.24 8.55 25.81 8.1C26.38 7.65 27.21 7.42 28.31 7.42H29.95V6.87C29.95 5.55 29.37 4.89 28.22 4.89C27.85 4.89 27.46 4.94 27.05 5.05C26.64 5.15 26.27 5.28 25.93 5.44L25.51 4.43C25.93 4.19 26.39 4.01 26.88 3.88C27.37 3.75 27.85 3.68 28.31 3.68C30.31 3.68 31.31 4.76 31.31 6.91V12.36H30.26L30.09 11.42C29.67 11.76 29.22 12.03 28.74 12.22C28.26 12.41 27.8 12.5 27.37 12.5C26.62 12.5 26.03 12.28 25.6 11.85C25.17 11.42 24.96 10.82 24.96 10.07" fill="#1E1E1E"/>
<path d="M37.03 4.85C36.29 4.85 35.72 5.13 35.32 5.69C34.92 6.25 34.72 7.07 34.72 8.15C34.72 9.23 34.92 10.03 35.32 10.57C35.72 11.12 36.29 11.39 37.03 11.39C37.77 11.39 38.36 11.12 38.75 10.57C39.15 10.02 39.35 9.22 39.35 8.15C39.35 7.08 39.15 6.25 38.75 5.69C38.35 5.13 37.78 4.85 37.03 4.85ZM37.03 3.69C38.2 3.69 39.13 4.07 39.8 4.84C40.47 5.61 40.81 6.71 40.81 8.14C40.81 9.57 40.48 10.64 39.81 11.4C39.15 12.16 38.22 12.54 37.03 12.54C35.84 12.54 34.93 12.16 34.26 11.4C33.59 10.64 33.25 9.56 33.25 8.14C33.25 6.72 33.59 5.61 34.26 4.84C34.94 4.07 35.86 3.69 37.02 3.69" fill="#1E1E1E"/>
</svg>
