<svg width="131" height="12" viewBox="0 0 131 12" fill="none" xmlns="http://www.w3.org/2000/svg">
<path d="M8.62998 2.9H5.68999V11.74H3.53999V2.9H0.609985V0.839998H8.62998V2.9Z" fill="#1E1E1E"/>
<path d="M16.57 9.69V11.75H9.82999V0.839998H16.49V2.9H11.97V5.22H16.1V7.24H11.97V9.68H16.56L16.57 9.69Z" fill="#1E1E1E"/>
<path d="M17.5 6.29C17.5 3.1 19.87 0.619999 23.17 0.619999C25.16 0.619999 26.92 1.63 27.86 3.19L26.01 4.26C25.48 3.29 24.42 2.7 23.18 2.7C21.05 2.7 19.65 4.18 19.65 6.28C19.65 8.38 21.05 9.85 23.18 9.85C24.43 9.85 25.5 9.26 26.01 8.31L27.86 9.38C26.94 10.94 25.18 11.95 23.17 11.95C19.87 11.95 17.5 9.46 17.5 6.28V6.29Z" fill="#1E1E1E"/>
<path d="M37.51 0.839998V11.74H35.38V7.22H31.33V11.74H29.18V0.839998H31.33V5.17H35.38V0.839998H37.51Z" fill="#1E1E1E"/>
<path d="M45.58 2.9V5.48H49.82V7.54H45.58V11.74H43.43V0.839998H49.94V2.9H45.58Z" fill="#1E1E1E"/>
<path d="M51.01 6.29C51.01 3.1 53.52 0.619999 56.66 0.619999C59.8 0.619999 62.33 3.1 62.33 6.29C62.33 9.48 59.81 11.96 56.66 11.96C53.51 11.96 51.01 9.47 51.01 6.29ZM60.18 6.29C60.18 4.19 58.64 2.71 56.66 2.71C54.68 2.71 53.14 4.19 53.14 6.29C53.14 8.39 54.68 9.86 56.66 9.86C58.64 9.86 60.18 8.38 60.18 6.29Z" fill="#1E1E1E"/>
<path d="M67.63 7.96H65.99V11.74H63.84V0.839998H68.2C70.21 0.839998 71.83 2.46 71.83 4.45C71.83 5.82 70.97 7.05 69.73 7.63L72.14 11.74H69.82L67.62 7.96H67.63ZM65.99 6.07H68.2C69.01 6.07 69.68 5.35 69.68 4.45C69.68 3.55 69.01 2.85 68.2 2.85H65.99V6.07Z" fill="#1E1E1E"/>
<path d="M92.14 11.74H90.01V4.67L86.94 9.73H86.69L83.62 4.68V11.73H81.47V0.839998H83.68L86.81 5.99L89.92 0.839998H92.13V11.74H92.14Z" fill="#1E1E1E"/>
<path d="M101.94 4.5C101.94 6.54 100.32 8.16 98.22 8.16H96.3V11.74H94.15V0.839998H98.21C100.31 0.839998 101.93 2.46 101.93 4.5H101.94ZM99.81 4.5C99.81 3.55 99.14 2.85 98.22 2.85H96.3V6.15H98.22C99.14 6.15 99.81 5.43 99.81 4.5Z" fill="#1E1E1E"/>
<path d="M108.59 9.78H104.25L103.6 11.74H101.28L105.09 0.839998H107.75L111.58 11.74H109.24L108.59 9.78ZM107.92 7.77L106.43 3.32L104.94 7.77H107.93H107.92Z" fill="#1E1E1E"/>
<path d="M111.75 6.29C111.75 3.1 114.12 0.619999 117.42 0.619999C119.41 0.619999 121.17 1.63 122.11 3.19L120.26 4.26C119.73 3.29 118.67 2.7 117.43 2.7C115.3 2.7 113.9 4.18 113.9 6.28C113.9 8.38 115.3 9.85 117.43 9.85C118.68 9.85 119.75 9.26 120.26 8.31L122.11 9.38C121.19 10.94 119.43 11.95 117.42 11.95C114.12 11.95 111.75 9.46 111.75 6.28V6.29Z" fill="#1E1E1E"/>
<path d="M130.6 2.9H127.66V11.74H125.51V2.9H122.58V0.839998H130.6V2.9Z" fill="#1E1E1E"/>
<path d="M78.36 11.88C79.1442 11.88 79.78 11.2442 79.78 10.46C79.78 9.67575 79.1442 9.04 78.36 9.04C77.5757 9.04 76.94 9.67575 76.94 10.46C76.94 11.2442 77.5757 11.88 78.36 11.88Z" fill="#1E1E1E"/>
<path d="M78.36 7.62C78.68 7.62 78.98 7.67 79.26 7.77L80 0.759999C79.47 0.669999 78.92 0.619999 78.36 0.619999C77.8 0.619999 77.25 0.669999 76.72 0.759999L77.46 7.77C77.74 7.67 78.05 7.62 78.36 7.62Z" fill="#1E1E1E"/>
</svg>
